<mxfile host="Electron" modified="2023-11-29T12:29:23.019Z" agent="Mozilla/5.0 (Windows NT 10.0; Win64; x64) AppleWebKit/537.36 (KHTML, like Gecko) draw.io/22.0.2 Chrome/114.0.5735.289 Electron/25.8.4 Safari/537.36" etag="Of8oJJ4n-vipoDnsYlVS" version="22.0.2" type="device">
  <diagram name="Page-1" id="97916047-d0de-89f5-080d-49f4d83e522f">
    <mxGraphModel dx="3779.5" dy="2480.5" grid="1" gridSize="10" guides="1" tooltips="1" connect="1" arrows="1" fold="1" page="1" pageScale="1.5" pageWidth="1169" pageHeight="827" background="none" math="0" shadow="0">
      <root>
        <mxCell id="0" />
        <mxCell id="1" parent="0" />
        <mxCell id="gpzR5CBWOuM9B5lPcLhK-56" value="Fesztivál_I5XJTC" style="ellipse;whiteSpace=wrap;html=1;" parent="1" vertex="1">
          <mxGeometry x="689" y="-240" width="120" height="80" as="geometry" />
        </mxCell>
        <mxCell id="gpzR5CBWOuM9B5lPcLhK-57" value="Résztvevő" style="ellipse;whiteSpace=wrap;html=1;" parent="1" vertex="1">
          <mxGeometry x="-344" y="118" width="120" height="80" as="geometry" />
        </mxCell>
        <mxCell id="gpzR5CBWOuM9B5lPcLhK-58" value="Bár" style="ellipse;whiteSpace=wrap;html=1;" parent="1" vertex="1">
          <mxGeometry x="1400" y="121" width="120" height="80" as="geometry" />
        </mxCell>
        <mxCell id="gpzR5CBWOuM9B5lPcLhK-59" value="Tulajdonos" style="ellipse;whiteSpace=wrap;html=1;" parent="1" vertex="1">
          <mxGeometry x="-902" y="120" width="120" height="80" as="geometry" />
        </mxCell>
        <mxCell id="gpzR5CBWOuM9B5lPcLhK-60" value="Fellépő" style="ellipse;whiteSpace=wrap;html=1;" parent="1" vertex="1">
          <mxGeometry x="2318" y="121" width="120" height="80" as="geometry" />
        </mxCell>
        <mxCell id="gpzR5CBWOuM9B5lPcLhK-62" value="" style="endArrow=none;html=1;rounded=0;entryX=0.5;entryY=1;entryDx=0;entryDy=0;exitX=0.5;exitY=0;exitDx=0;exitDy=0;" parent="1" source="OQ8OwJereQaBiXP1IK4k-3" target="gpzR5CBWOuM9B5lPcLhK-56" edge="1">
          <mxGeometry width="50" height="50" relative="1" as="geometry">
            <mxPoint x="867" y="570" as="sourcePoint" />
            <mxPoint x="917" y="520" as="targetPoint" />
          </mxGeometry>
        </mxCell>
        <mxCell id="gpzR5CBWOuM9B5lPcLhK-63" value="" style="endArrow=none;html=1;rounded=0;entryX=0.5;entryY=1;entryDx=0;entryDy=0;exitX=0.5;exitY=0;exitDx=0;exitDy=0;" parent="1" source="gpzR5CBWOuM9B5lPcLhK-57" target="gpzR5CBWOuM9B5lPcLhK-56" edge="1">
          <mxGeometry width="50" height="50" relative="1" as="geometry">
            <mxPoint x="867" y="570" as="sourcePoint" />
            <mxPoint x="917" y="520" as="targetPoint" />
          </mxGeometry>
        </mxCell>
        <mxCell id="gpzR5CBWOuM9B5lPcLhK-64" value="" style="endArrow=none;html=1;rounded=0;exitX=0.5;exitY=0;exitDx=0;exitDy=0;entryX=0.5;entryY=1;entryDx=0;entryDy=0;" parent="1" source="OQ8OwJereQaBiXP1IK4k-1" target="gpzR5CBWOuM9B5lPcLhK-56" edge="1">
          <mxGeometry width="50" height="50" relative="1" as="geometry">
            <mxPoint x="867" y="570" as="sourcePoint" />
            <mxPoint x="1090" y="70" as="targetPoint" />
          </mxGeometry>
        </mxCell>
        <mxCell id="gpzR5CBWOuM9B5lPcLhK-65" value="" style="endArrow=none;html=1;rounded=0;entryX=0.5;entryY=1;entryDx=0;entryDy=0;exitX=0.5;exitY=0;exitDx=0;exitDy=0;" parent="1" source="gpzR5CBWOuM9B5lPcLhK-59" target="gpzR5CBWOuM9B5lPcLhK-56" edge="1">
          <mxGeometry width="50" height="50" relative="1" as="geometry">
            <mxPoint x="-235.57359312880726" y="166.7157287525381" as="sourcePoint" />
            <mxPoint x="816" y="70" as="targetPoint" />
          </mxGeometry>
        </mxCell>
        <mxCell id="gpzR5CBWOuM9B5lPcLhK-67" value="név" style="ellipse;whiteSpace=wrap;html=1;" parent="1" vertex="1">
          <mxGeometry x="1831" y="256" width="80" height="60" as="geometry" />
        </mxCell>
        <mxCell id="gpzR5CBWOuM9B5lPcLhK-69" value="helyszín" style="ellipse;whiteSpace=wrap;html=1;" parent="1" vertex="1">
          <mxGeometry x="1930" y="256" width="80" height="60" as="geometry" />
        </mxCell>
        <mxCell id="gpzR5CBWOuM9B5lPcLhK-70" value="év" style="ellipse;whiteSpace=wrap;html=1;" parent="1" vertex="1">
          <mxGeometry x="2030" y="256" width="80" height="60" as="geometry" />
        </mxCell>
        <mxCell id="gpzR5CBWOuM9B5lPcLhK-74" value="" style="endArrow=none;html=1;rounded=0;exitX=0.5;exitY=0;exitDx=0;exitDy=0;entryX=0.5;entryY=1;entryDx=0;entryDy=0;" parent="1" source="eGRWjD5pN5fuBiRvpTxn-2" target="eGRWjD5pN5fuBiRvpTxn-11" edge="1">
          <mxGeometry width="50" height="50" relative="1" as="geometry">
            <mxPoint x="1449.04" y="4" as="sourcePoint" />
            <mxPoint x="1800" y="585" as="targetPoint" />
          </mxGeometry>
        </mxCell>
        <mxCell id="gpzR5CBWOuM9B5lPcLhK-75" value="" style="endArrow=none;html=1;rounded=0;entryX=0.5;entryY=1;entryDx=0;entryDy=0;exitX=0.5;exitY=0;exitDx=0;exitDy=0;" parent="1" source="gpzR5CBWOuM9B5lPcLhK-67" target="OQ8OwJereQaBiXP1IK4k-2" edge="1">
          <mxGeometry width="50" height="50" relative="1" as="geometry">
            <mxPoint x="1898" y="-25" as="sourcePoint" />
            <mxPoint x="1948" y="-75" as="targetPoint" />
          </mxGeometry>
        </mxCell>
        <mxCell id="gpzR5CBWOuM9B5lPcLhK-76" value="" style="endArrow=none;html=1;rounded=0;entryX=0.5;entryY=0;entryDx=0;entryDy=0;exitX=0.5;exitY=1;exitDx=0;exitDy=0;" parent="1" source="OQ8OwJereQaBiXP1IK4k-2" target="gpzR5CBWOuM9B5lPcLhK-69" edge="1">
          <mxGeometry width="50" height="50" relative="1" as="geometry">
            <mxPoint x="2100" y="180" as="sourcePoint" />
            <mxPoint x="1948" y="-75" as="targetPoint" />
          </mxGeometry>
        </mxCell>
        <mxCell id="gpzR5CBWOuM9B5lPcLhK-77" value="" style="endArrow=none;html=1;rounded=0;exitX=0.5;exitY=0;exitDx=0;exitDy=0;entryX=0.5;entryY=1;entryDx=0;entryDy=0;" parent="1" source="gpzR5CBWOuM9B5lPcLhK-70" target="OQ8OwJereQaBiXP1IK4k-2" edge="1">
          <mxGeometry width="50" height="50" relative="1" as="geometry">
            <mxPoint x="1898" y="-25" as="sourcePoint" />
            <mxPoint x="1983" y="240" as="targetPoint" />
          </mxGeometry>
        </mxCell>
        <mxCell id="gpzR5CBWOuM9B5lPcLhK-82" value="" style="endArrow=none;html=1;rounded=0;entryX=0.5;entryY=1;entryDx=0;entryDy=0;exitX=0.5;exitY=0;exitDx=0;exitDy=0;" parent="1" source="eGRWjD5pN5fuBiRvpTxn-88" target="gpzR5CBWOuM9B5lPcLhK-67" edge="1">
          <mxGeometry width="50" height="50" relative="1" as="geometry">
            <mxPoint x="1770" y="349" as="sourcePoint" />
            <mxPoint x="1923" y="-75" as="targetPoint" />
          </mxGeometry>
        </mxCell>
        <mxCell id="gpzR5CBWOuM9B5lPcLhK-83" value="" style="endArrow=none;html=1;rounded=0;entryX=0.5;entryY=1;entryDx=0;entryDy=0;exitX=0.5;exitY=0;exitDx=0;exitDy=0;" parent="1" source="eGRWjD5pN5fuBiRvpTxn-89" target="gpzR5CBWOuM9B5lPcLhK-69" edge="1">
          <mxGeometry width="50" height="50" relative="1" as="geometry">
            <mxPoint x="1885" y="349" as="sourcePoint" />
            <mxPoint x="1935" y="-75" as="targetPoint" />
          </mxGeometry>
        </mxCell>
        <mxCell id="gpzR5CBWOuM9B5lPcLhK-84" value="" style="endArrow=none;html=1;rounded=0;entryX=0.5;entryY=1;entryDx=0;entryDy=0;exitX=0.5;exitY=0;exitDx=0;exitDy=0;" parent="1" source="eGRWjD5pN5fuBiRvpTxn-90" target="gpzR5CBWOuM9B5lPcLhK-70" edge="1">
          <mxGeometry width="50" height="50" relative="1" as="geometry">
            <mxPoint x="2029" y="349" as="sourcePoint" />
            <mxPoint x="1935" y="-75" as="targetPoint" />
          </mxGeometry>
        </mxCell>
        <mxCell id="eGRWjD5pN5fuBiRvpTxn-2" value="&lt;u&gt;Fesz_id&lt;/u&gt;" style="rhombus;whiteSpace=wrap;html=1;" parent="1" vertex="1">
          <mxGeometry x="1730" y="256" width="80" height="60" as="geometry" />
        </mxCell>
        <mxCell id="eGRWjD5pN5fuBiRvpTxn-3" value="név" style="ellipse;whiteSpace=wrap;html=1;" parent="1" vertex="1">
          <mxGeometry x="-1031" y="256" width="80" height="60" as="geometry" />
        </mxCell>
        <mxCell id="eGRWjD5pN5fuBiRvpTxn-4" value="adószám" style="ellipse;whiteSpace=wrap;html=1;" parent="1" vertex="1">
          <mxGeometry x="-932" y="256" width="80" height="60" as="geometry" />
        </mxCell>
        <mxCell id="eGRWjD5pN5fuBiRvpTxn-5" value="&lt;u&gt;T_id&lt;/u&gt;" style="rhombus;whiteSpace=wrap;html=1;" parent="1" vertex="1">
          <mxGeometry x="-1129" y="256" width="80" height="60" as="geometry" />
        </mxCell>
        <mxCell id="eGRWjD5pN5fuBiRvpTxn-6" value="" style="endArrow=none;html=1;rounded=0;exitX=0.5;exitY=0;exitDx=0;exitDy=0;entryX=0.5;entryY=1;entryDx=0;entryDy=0;" parent="1" source="eGRWjD5pN5fuBiRvpTxn-5" target="OQ8OwJereQaBiXP1IK4k-8" edge="1">
          <mxGeometry width="50" height="50" relative="1" as="geometry">
            <mxPoint x="-796" y="435" as="sourcePoint" />
            <mxPoint x="-816" y="280" as="targetPoint" />
          </mxGeometry>
        </mxCell>
        <mxCell id="eGRWjD5pN5fuBiRvpTxn-7" value="" style="endArrow=none;html=1;rounded=0;entryX=0.5;entryY=1;entryDx=0;entryDy=0;exitX=1;exitY=0;exitDx=0;exitDy=0;" parent="1" source="eGRWjD5pN5fuBiRvpTxn-3" target="OQ8OwJereQaBiXP1IK4k-8" edge="1">
          <mxGeometry width="50" height="50" relative="1" as="geometry">
            <mxPoint x="-896" y="185" as="sourcePoint" />
            <mxPoint x="-846" y="135" as="targetPoint" />
          </mxGeometry>
        </mxCell>
        <mxCell id="eGRWjD5pN5fuBiRvpTxn-8" value="" style="endArrow=none;html=1;rounded=0;entryX=0.5;entryY=1;entryDx=0;entryDy=0;exitX=0.5;exitY=0;exitDx=0;exitDy=0;" parent="1" source="eGRWjD5pN5fuBiRvpTxn-4" target="OQ8OwJereQaBiXP1IK4k-8" edge="1">
          <mxGeometry width="50" height="50" relative="1" as="geometry">
            <mxPoint x="-896" y="185" as="sourcePoint" />
            <mxPoint x="-846" y="135" as="targetPoint" />
          </mxGeometry>
        </mxCell>
        <mxCell id="eGRWjD5pN5fuBiRvpTxn-9" value="alapítás" style="ellipse;whiteSpace=wrap;html=1;" parent="1" vertex="1">
          <mxGeometry x="-833" y="256" width="80" height="60" as="geometry" />
        </mxCell>
        <mxCell id="eGRWjD5pN5fuBiRvpTxn-10" value="" style="endArrow=none;html=1;rounded=0;exitX=0.5;exitY=0;exitDx=0;exitDy=0;entryX=0.5;entryY=1;entryDx=0;entryDy=0;" parent="1" source="eGRWjD5pN5fuBiRvpTxn-9" target="OQ8OwJereQaBiXP1IK4k-8" edge="1">
          <mxGeometry width="50" height="50" relative="1" as="geometry">
            <mxPoint x="-816" y="225" as="sourcePoint" />
            <mxPoint x="-759" y="250" as="targetPoint" />
          </mxGeometry>
        </mxCell>
        <mxCell id="eGRWjD5pN5fuBiRvpTxn-11" value="Fesztivál" style="ellipse;whiteSpace=wrap;html=1;" parent="1" vertex="1">
          <mxGeometry x="1859" y="120" width="120" height="80" as="geometry" />
        </mxCell>
        <mxCell id="eGRWjD5pN5fuBiRvpTxn-12" value="" style="endArrow=none;html=1;rounded=0;entryX=0.5;entryY=1;entryDx=0;entryDy=0;exitX=0.5;exitY=0;exitDx=0;exitDy=0;" parent="1" source="OQ8OwJereQaBiXP1IK4k-2" target="gpzR5CBWOuM9B5lPcLhK-56" edge="1">
          <mxGeometry width="50" height="50" relative="1" as="geometry">
            <mxPoint x="890" y="630" as="sourcePoint" />
            <mxPoint x="940" y="580" as="targetPoint" />
          </mxGeometry>
        </mxCell>
        <mxCell id="eGRWjD5pN5fuBiRvpTxn-18" value="bevétel" style="ellipse;whiteSpace=wrap;html=1;" parent="1" vertex="1">
          <mxGeometry x="-734" y="256" width="80" height="60" as="geometry" />
        </mxCell>
        <mxCell id="eGRWjD5pN5fuBiRvpTxn-19" value="" style="endArrow=none;html=1;rounded=0;entryX=0.5;entryY=1;entryDx=0;entryDy=0;exitX=0.275;exitY=0.083;exitDx=0;exitDy=0;exitPerimeter=0;" parent="1" source="eGRWjD5pN5fuBiRvpTxn-18" target="OQ8OwJereQaBiXP1IK4k-8" edge="1">
          <mxGeometry width="50" height="50" relative="1" as="geometry">
            <mxPoint x="-326" y="325" as="sourcePoint" />
            <mxPoint x="-276" y="275" as="targetPoint" />
          </mxGeometry>
        </mxCell>
        <mxCell id="eGRWjD5pN5fuBiRvpTxn-26" value="" style="endArrow=none;html=1;rounded=0;entryX=0.5;entryY=1;entryDx=0;entryDy=0;exitX=0.5;exitY=0;exitDx=0;exitDy=0;" parent="1" source="eGRWjD5pN5fuBiRvpTxn-79" target="eGRWjD5pN5fuBiRvpTxn-18" edge="1">
          <mxGeometry width="50" height="50" relative="1" as="geometry">
            <mxPoint x="-695" y="336" as="sourcePoint" />
            <mxPoint x="-314" y="515" as="targetPoint" />
          </mxGeometry>
        </mxCell>
        <mxCell id="eGRWjD5pN5fuBiRvpTxn-27" value="" style="endArrow=none;html=1;rounded=0;entryX=0.5;entryY=1;entryDx=0;entryDy=0;exitX=0.5;exitY=0;exitDx=0;exitDy=0;" parent="1" source="eGRWjD5pN5fuBiRvpTxn-80" target="eGRWjD5pN5fuBiRvpTxn-9" edge="1">
          <mxGeometry width="50" height="50" relative="1" as="geometry">
            <mxPoint x="-794" y="340" as="sourcePoint" />
            <mxPoint x="-323" y="515" as="targetPoint" />
          </mxGeometry>
        </mxCell>
        <mxCell id="eGRWjD5pN5fuBiRvpTxn-28" value="" style="endArrow=none;html=1;rounded=0;entryX=0.5;entryY=1;entryDx=0;entryDy=0;exitX=0.5;exitY=0;exitDx=0;exitDy=0;" parent="1" source="eGRWjD5pN5fuBiRvpTxn-78" target="eGRWjD5pN5fuBiRvpTxn-4" edge="1">
          <mxGeometry width="50" height="50" relative="1" as="geometry">
            <mxPoint x="-891" y="339" as="sourcePoint" />
            <mxPoint x="-322" y="515" as="targetPoint" />
          </mxGeometry>
        </mxCell>
        <mxCell id="eGRWjD5pN5fuBiRvpTxn-29" value="" style="endArrow=none;html=1;rounded=0;entryX=0.5;entryY=1;entryDx=0;entryDy=0;exitX=0.5;exitY=0;exitDx=0;exitDy=0;" parent="1" source="eGRWjD5pN5fuBiRvpTxn-77" target="eGRWjD5pN5fuBiRvpTxn-3" edge="1">
          <mxGeometry width="50" height="50" relative="1" as="geometry">
            <mxPoint x="-977" y="340.02" as="sourcePoint" />
            <mxPoint x="-316" y="515" as="targetPoint" />
          </mxGeometry>
        </mxCell>
        <mxCell id="eGRWjD5pN5fuBiRvpTxn-31" value="név" style="ellipse;whiteSpace=wrap;html=1;" parent="1" vertex="1">
          <mxGeometry x="2339" y="256" width="80" height="60" as="geometry" />
        </mxCell>
        <mxCell id="eGRWjD5pN5fuBiRvpTxn-32" value="ország" style="ellipse;whiteSpace=wrap;html=1;" parent="1" vertex="1">
          <mxGeometry x="2440" y="256" width="80" height="60" as="geometry" />
        </mxCell>
        <mxCell id="eGRWjD5pN5fuBiRvpTxn-33" value="díj" style="ellipse;whiteSpace=wrap;html=1;" parent="1" vertex="1">
          <mxGeometry x="2240" y="256" width="80" height="60" as="geometry" />
        </mxCell>
        <mxCell id="eGRWjD5pN5fuBiRvpTxn-35" value="&lt;u&gt;Fel_id&lt;/u&gt;" style="rhombus;whiteSpace=wrap;html=1;" parent="1" vertex="1">
          <mxGeometry x="2540" y="256" width="80" height="60" as="geometry" />
        </mxCell>
        <mxCell id="eGRWjD5pN5fuBiRvpTxn-36" value="" style="endArrow=none;html=1;rounded=0;exitX=0.5;exitY=0;exitDx=0;exitDy=0;entryX=0.5;entryY=1;entryDx=0;entryDy=0;" parent="1" source="eGRWjD5pN5fuBiRvpTxn-31" target="OQ8OwJereQaBiXP1IK4k-1" edge="1">
          <mxGeometry width="50" height="50" relative="1" as="geometry">
            <mxPoint x="2677" y="410" as="sourcePoint" />
            <mxPoint x="2230" y="250" as="targetPoint" />
          </mxGeometry>
        </mxCell>
        <mxCell id="eGRWjD5pN5fuBiRvpTxn-37" value="" style="endArrow=none;html=1;rounded=0;entryX=0.5;entryY=1;entryDx=0;entryDy=0;exitX=0.5;exitY=0;exitDx=0;exitDy=0;" parent="1" source="eGRWjD5pN5fuBiRvpTxn-35" target="OQ8OwJereQaBiXP1IK4k-1" edge="1">
          <mxGeometry width="50" height="50" relative="1" as="geometry">
            <mxPoint x="2401" y="410" as="sourcePoint" />
            <mxPoint x="2451" y="360" as="targetPoint" />
          </mxGeometry>
        </mxCell>
        <mxCell id="eGRWjD5pN5fuBiRvpTxn-38" value="" style="endArrow=none;html=1;rounded=0;entryX=0.5;entryY=1;entryDx=0;entryDy=0;exitX=0.5;exitY=0;exitDx=0;exitDy=0;" parent="1" source="eGRWjD5pN5fuBiRvpTxn-33" target="OQ8OwJereQaBiXP1IK4k-1" edge="1">
          <mxGeometry width="50" height="50" relative="1" as="geometry">
            <mxPoint x="2190" y="230" as="sourcePoint" />
            <mxPoint x="2727" y="360" as="targetPoint" />
          </mxGeometry>
        </mxCell>
        <mxCell id="eGRWjD5pN5fuBiRvpTxn-39" value="" style="endArrow=none;html=1;rounded=0;entryX=0.5;entryY=1;entryDx=0;entryDy=0;exitX=0.5;exitY=0;exitDx=0;exitDy=0;" parent="1" source="eGRWjD5pN5fuBiRvpTxn-32" target="OQ8OwJereQaBiXP1IK4k-1" edge="1">
          <mxGeometry width="50" height="50" relative="1" as="geometry">
            <mxPoint x="2677" y="410" as="sourcePoint" />
            <mxPoint x="2727" y="360" as="targetPoint" />
          </mxGeometry>
        </mxCell>
        <mxCell id="eGRWjD5pN5fuBiRvpTxn-47" value="" style="endArrow=none;html=1;rounded=0;entryX=0.5;entryY=0;entryDx=0;entryDy=0;exitX=0.5;exitY=1;exitDx=0;exitDy=0;" parent="1" source="eGRWjD5pN5fuBiRvpTxn-32" target="eGRWjD5pN5fuBiRvpTxn-93" edge="1">
          <mxGeometry width="50" height="50" relative="1" as="geometry">
            <mxPoint x="2620" y="570" as="sourcePoint" />
            <mxPoint x="2481" y="342.02" as="targetPoint" />
          </mxGeometry>
        </mxCell>
        <mxCell id="eGRWjD5pN5fuBiRvpTxn-48" value="" style="endArrow=none;html=1;rounded=0;entryX=0.5;entryY=1;entryDx=0;entryDy=0;exitX=0.5;exitY=0;exitDx=0;exitDy=0;" parent="1" source="eGRWjD5pN5fuBiRvpTxn-92" target="eGRWjD5pN5fuBiRvpTxn-31" edge="1">
          <mxGeometry width="50" height="50" relative="1" as="geometry">
            <mxPoint x="2358" y="345.02" as="sourcePoint" />
            <mxPoint x="2659" y="520" as="targetPoint" />
          </mxGeometry>
        </mxCell>
        <mxCell id="eGRWjD5pN5fuBiRvpTxn-49" value="" style="endArrow=none;html=1;rounded=0;entryX=0.5;entryY=1;entryDx=0;entryDy=0;exitX=0.5;exitY=0;exitDx=0;exitDy=0;" parent="1" source="eGRWjD5pN5fuBiRvpTxn-91" target="eGRWjD5pN5fuBiRvpTxn-33" edge="1">
          <mxGeometry width="50" height="50" relative="1" as="geometry">
            <mxPoint x="2232" y="351.02" as="sourcePoint" />
            <mxPoint x="2654" y="521" as="targetPoint" />
          </mxGeometry>
        </mxCell>
        <mxCell id="eGRWjD5pN5fuBiRvpTxn-54" value="&lt;u&gt;B_id&lt;/u&gt;" style="rhombus;whiteSpace=wrap;html=1;" parent="1" vertex="1">
          <mxGeometry x="1220" y="256" width="80" height="60" as="geometry" />
        </mxCell>
        <mxCell id="eGRWjD5pN5fuBiRvpTxn-55" value="" style="endArrow=none;html=1;rounded=0;exitX=0.5;exitY=0;exitDx=0;exitDy=0;entryX=0.5;entryY=1;entryDx=0;entryDy=0;" parent="1" source="eGRWjD5pN5fuBiRvpTxn-54" target="OQ8OwJereQaBiXP1IK4k-3" edge="1">
          <mxGeometry width="50" height="50" relative="1" as="geometry">
            <mxPoint x="1699" y="450" as="sourcePoint" />
            <mxPoint x="1530" y="250" as="targetPoint" />
          </mxGeometry>
        </mxCell>
        <mxCell id="eGRWjD5pN5fuBiRvpTxn-57" value="név" style="ellipse;whiteSpace=wrap;html=1;" parent="1" vertex="1">
          <mxGeometry x="1520" y="256" width="80" height="60" as="geometry" />
        </mxCell>
        <mxCell id="eGRWjD5pN5fuBiRvpTxn-58" value="cég" style="ellipse;whiteSpace=wrap;html=1;" parent="1" vertex="1">
          <mxGeometry x="1421" y="256" width="80" height="60" as="geometry" />
        </mxCell>
        <mxCell id="eGRWjD5pN5fuBiRvpTxn-59" value="ital" style="ellipse;whiteSpace=wrap;html=1;" parent="1" vertex="1">
          <mxGeometry x="1318" y="256" width="80" height="60" as="geometry" />
        </mxCell>
        <mxCell id="eGRWjD5pN5fuBiRvpTxn-60" value="" style="endArrow=none;html=1;rounded=0;entryX=0.5;entryY=1;entryDx=0;entryDy=0;exitX=0.5;exitY=0;exitDx=0;exitDy=0;" parent="1" source="OQ8OwJereQaBiXP1IK4k-4" target="gpzR5CBWOuM9B5lPcLhK-56" edge="1">
          <mxGeometry width="50" height="50" relative="1" as="geometry">
            <mxPoint x="1060" y="690" as="sourcePoint" />
            <mxPoint x="1050" y="270" as="targetPoint" />
          </mxGeometry>
        </mxCell>
        <mxCell id="eGRWjD5pN5fuBiRvpTxn-61" value="" style="endArrow=none;html=1;rounded=0;entryX=0.5;entryY=0;entryDx=0;entryDy=0;exitX=0.5;exitY=1;exitDx=0;exitDy=0;" parent="1" source="OQ8OwJereQaBiXP1IK4k-3" target="eGRWjD5pN5fuBiRvpTxn-57" edge="1">
          <mxGeometry width="50" height="50" relative="1" as="geometry">
            <mxPoint x="1485" y="200" as="sourcePoint" />
            <mxPoint x="1785" y="400" as="targetPoint" />
          </mxGeometry>
        </mxCell>
        <mxCell id="eGRWjD5pN5fuBiRvpTxn-62" value="" style="endArrow=none;html=1;rounded=0;entryX=0.5;entryY=1;entryDx=0;entryDy=0;exitX=0.5;exitY=0;exitDx=0;exitDy=0;" parent="1" source="eGRWjD5pN5fuBiRvpTxn-58" target="OQ8OwJereQaBiXP1IK4k-3" edge="1">
          <mxGeometry width="50" height="50" relative="1" as="geometry">
            <mxPoint x="1540" y="290" as="sourcePoint" />
            <mxPoint x="1785" y="400" as="targetPoint" />
          </mxGeometry>
        </mxCell>
        <mxCell id="eGRWjD5pN5fuBiRvpTxn-63" value="" style="endArrow=none;html=1;rounded=0;entryX=0.5;entryY=1;entryDx=0;entryDy=0;exitX=0.5;exitY=0;exitDx=0;exitDy=0;" parent="1" source="eGRWjD5pN5fuBiRvpTxn-59" target="OQ8OwJereQaBiXP1IK4k-3" edge="1">
          <mxGeometry width="50" height="50" relative="1" as="geometry">
            <mxPoint x="1370" y="180" as="sourcePoint" />
            <mxPoint x="1785" y="400" as="targetPoint" />
          </mxGeometry>
        </mxCell>
        <mxCell id="eGRWjD5pN5fuBiRvpTxn-65" value="" style="endArrow=none;html=1;rounded=0;entryX=0.5;entryY=1;entryDx=0;entryDy=0;exitX=0.5;exitY=0;exitDx=0;exitDy=0;" parent="1" source="eGRWjD5pN5fuBiRvpTxn-87" target="eGRWjD5pN5fuBiRvpTxn-57" edge="1">
          <mxGeometry width="50" height="50" relative="1" as="geometry">
            <mxPoint x="1459" y="345.98" as="sourcePoint" />
            <mxPoint x="1743" y="400" as="targetPoint" />
          </mxGeometry>
        </mxCell>
        <mxCell id="eGRWjD5pN5fuBiRvpTxn-67" value="" style="endArrow=none;html=1;rounded=0;entryX=0.5;entryY=1;entryDx=0;entryDy=0;exitX=0.5;exitY=0;exitDx=0;exitDy=0;" parent="1" source="eGRWjD5pN5fuBiRvpTxn-86" target="eGRWjD5pN5fuBiRvpTxn-58" edge="1">
          <mxGeometry width="50" height="50" relative="1" as="geometry">
            <mxPoint x="1327" y="341.98" as="sourcePoint" />
            <mxPoint x="1781" y="400" as="targetPoint" />
          </mxGeometry>
        </mxCell>
        <mxCell id="eGRWjD5pN5fuBiRvpTxn-69" value="" style="endArrow=none;html=1;rounded=0;entryX=0.5;entryY=1;entryDx=0;entryDy=0;exitX=0.5;exitY=0;exitDx=0;exitDy=0;" parent="1" source="eGRWjD5pN5fuBiRvpTxn-85" target="eGRWjD5pN5fuBiRvpTxn-59" edge="1">
          <mxGeometry width="50" height="50" relative="1" as="geometry">
            <mxPoint x="1217" y="341.02" as="sourcePoint" />
            <mxPoint x="1768" y="400" as="targetPoint" />
          </mxGeometry>
        </mxCell>
        <mxCell id="eGRWjD5pN5fuBiRvpTxn-70" value="név" style="ellipse;whiteSpace=wrap;html=1;" parent="1" vertex="1">
          <mxGeometry x="-425" y="256" width="80" height="60" as="geometry" />
        </mxCell>
        <mxCell id="eGRWjD5pN5fuBiRvpTxn-71" value="diákigazolvány&lt;br&gt;(O)" style="ellipse;whiteSpace=wrap;html=1;" parent="1" vertex="1">
          <mxGeometry x="-325" y="256" width="80" height="60" as="geometry" />
        </mxCell>
        <mxCell id="eGRWjD5pN5fuBiRvpTxn-72" value="&lt;u&gt;R_id&lt;/u&gt;" style="rhombus;whiteSpace=wrap;html=1;" parent="1" vertex="1">
          <mxGeometry x="-121" y="256" width="80" height="60" as="geometry" />
        </mxCell>
        <mxCell id="eGRWjD5pN5fuBiRvpTxn-73" value="" style="endArrow=none;html=1;rounded=0;entryX=0.5;entryY=1;entryDx=0;entryDy=0;exitX=0.5;exitY=0;exitDx=0;exitDy=0;" parent="1" source="eGRWjD5pN5fuBiRvpTxn-70" target="OQ8OwJereQaBiXP1IK4k-7" edge="1">
          <mxGeometry width="50" height="50" relative="1" as="geometry">
            <mxPoint x="149" y="430" as="sourcePoint" />
            <mxPoint x="199" y="380" as="targetPoint" />
          </mxGeometry>
        </mxCell>
        <mxCell id="eGRWjD5pN5fuBiRvpTxn-74" value="" style="endArrow=none;html=1;rounded=0;entryX=0.5;entryY=1;entryDx=0;entryDy=0;exitX=0.5;exitY=0;exitDx=0;exitDy=0;" parent="1" source="eGRWjD5pN5fuBiRvpTxn-71" target="OQ8OwJereQaBiXP1IK4k-7" edge="1">
          <mxGeometry width="50" height="50" relative="1" as="geometry">
            <mxPoint x="149" y="430" as="sourcePoint" />
            <mxPoint x="199" y="380" as="targetPoint" />
          </mxGeometry>
        </mxCell>
        <mxCell id="eGRWjD5pN5fuBiRvpTxn-75" value="" style="endArrow=none;html=1;rounded=0;entryX=0.5;entryY=1;entryDx=0;entryDy=0;exitX=0.5;exitY=0;exitDx=0;exitDy=0;" parent="1" source="eGRWjD5pN5fuBiRvpTxn-72" target="OQ8OwJereQaBiXP1IK4k-7" edge="1">
          <mxGeometry width="50" height="50" relative="1" as="geometry">
            <mxPoint x="149" y="430" as="sourcePoint" />
            <mxPoint x="199" y="380" as="targetPoint" />
          </mxGeometry>
        </mxCell>
        <mxCell id="eGRWjD5pN5fuBiRvpTxn-77" value="" style="rounded=0;whiteSpace=wrap;html=1;" parent="1" vertex="1">
          <mxGeometry x="-1016" y="340" width="50" height="70" as="geometry" />
        </mxCell>
        <mxCell id="eGRWjD5pN5fuBiRvpTxn-78" value="" style="rounded=0;whiteSpace=wrap;html=1;" parent="1" vertex="1">
          <mxGeometry x="-917" y="340" width="50" height="70" as="geometry" />
        </mxCell>
        <mxCell id="eGRWjD5pN5fuBiRvpTxn-79" value="" style="rounded=0;whiteSpace=wrap;html=1;" parent="1" vertex="1">
          <mxGeometry x="-719" y="340" width="50" height="70" as="geometry" />
        </mxCell>
        <mxCell id="eGRWjD5pN5fuBiRvpTxn-80" value="" style="rounded=0;whiteSpace=wrap;html=1;" parent="1" vertex="1">
          <mxGeometry x="-818" y="340" width="50" height="70" as="geometry" />
        </mxCell>
        <mxCell id="eGRWjD5pN5fuBiRvpTxn-81" value="" style="rounded=0;whiteSpace=wrap;html=1;" parent="1" vertex="1">
          <mxGeometry x="-410" y="340" width="50" height="70" as="geometry" />
        </mxCell>
        <mxCell id="eGRWjD5pN5fuBiRvpTxn-82" value="" style="rounded=0;whiteSpace=wrap;html=1;" parent="1" vertex="1">
          <mxGeometry x="-310" y="340" width="50" height="70" as="geometry" />
        </mxCell>
        <mxCell id="eGRWjD5pN5fuBiRvpTxn-83" value="" style="endArrow=none;html=1;rounded=0;entryX=0.5;entryY=1;entryDx=0;entryDy=0;exitX=0.5;exitY=0;exitDx=0;exitDy=0;" parent="1" source="eGRWjD5pN5fuBiRvpTxn-81" target="eGRWjD5pN5fuBiRvpTxn-70" edge="1">
          <mxGeometry width="50" height="50" relative="1" as="geometry">
            <mxPoint x="-95" y="430" as="sourcePoint" />
            <mxPoint x="-45" y="380" as="targetPoint" />
          </mxGeometry>
        </mxCell>
        <mxCell id="eGRWjD5pN5fuBiRvpTxn-84" value="" style="endArrow=none;html=1;rounded=0;exitX=0.5;exitY=0;exitDx=0;exitDy=0;entryX=0.5;entryY=1;entryDx=0;entryDy=0;" parent="1" source="eGRWjD5pN5fuBiRvpTxn-82" target="eGRWjD5pN5fuBiRvpTxn-71" edge="1">
          <mxGeometry width="50" height="50" relative="1" as="geometry">
            <mxPoint x="-82" y="430" as="sourcePoint" />
            <mxPoint x="-315" y="330" as="targetPoint" />
          </mxGeometry>
        </mxCell>
        <mxCell id="eGRWjD5pN5fuBiRvpTxn-85" value="" style="rounded=0;whiteSpace=wrap;html=1;" parent="1" vertex="1">
          <mxGeometry x="1333" y="340" width="50" height="70" as="geometry" />
        </mxCell>
        <mxCell id="eGRWjD5pN5fuBiRvpTxn-86" value="" style="rounded=0;whiteSpace=wrap;html=1;" parent="1" vertex="1">
          <mxGeometry x="1436" y="340" width="50" height="70" as="geometry" />
        </mxCell>
        <mxCell id="eGRWjD5pN5fuBiRvpTxn-87" value="" style="rounded=0;whiteSpace=wrap;html=1;" parent="1" vertex="1">
          <mxGeometry x="1535" y="340" width="50" height="70" as="geometry" />
        </mxCell>
        <mxCell id="eGRWjD5pN5fuBiRvpTxn-88" value="" style="rounded=0;whiteSpace=wrap;html=1;" parent="1" vertex="1">
          <mxGeometry x="1846" y="340" width="50" height="70" as="geometry" />
        </mxCell>
        <mxCell id="eGRWjD5pN5fuBiRvpTxn-89" value="" style="rounded=0;whiteSpace=wrap;html=1;" parent="1" vertex="1">
          <mxGeometry x="1945" y="340" width="50" height="70" as="geometry" />
        </mxCell>
        <mxCell id="eGRWjD5pN5fuBiRvpTxn-90" value="" style="rounded=0;whiteSpace=wrap;html=1;" parent="1" vertex="1">
          <mxGeometry x="2045" y="340" width="50" height="70" as="geometry" />
        </mxCell>
        <mxCell id="eGRWjD5pN5fuBiRvpTxn-91" value="" style="rounded=0;whiteSpace=wrap;html=1;" parent="1" vertex="1">
          <mxGeometry x="2255" y="341" width="50" height="70" as="geometry" />
        </mxCell>
        <mxCell id="eGRWjD5pN5fuBiRvpTxn-92" value="" style="rounded=0;whiteSpace=wrap;html=1;" parent="1" vertex="1">
          <mxGeometry x="2354" y="340" width="50" height="70" as="geometry" />
        </mxCell>
        <mxCell id="eGRWjD5pN5fuBiRvpTxn-93" value="" style="rounded=0;whiteSpace=wrap;html=1;" parent="1" vertex="1">
          <mxGeometry x="2455" y="340" width="50" height="70" as="geometry" />
        </mxCell>
        <mxCell id="eGRWjD5pN5fuBiRvpTxn-94" value="" style="endArrow=none;html=1;rounded=0;exitX=0.5;exitY=0;exitDx=0;exitDy=0;entryX=0.5;entryY=1;entryDx=0;entryDy=0;" parent="1" source="eGRWjD5pN5fuBiRvpTxn-95" edge="1" target="OQ8OwJereQaBiXP1IK4k-8">
          <mxGeometry width="50" height="50" relative="1" as="geometry">
            <mxPoint x="-769" y="480" as="sourcePoint" />
            <mxPoint x="-532" y="450" as="targetPoint" />
          </mxGeometry>
        </mxCell>
        <mxCell id="ZJUqIeF_-J3eagiU4TCH-17" style="edgeStyle=orthogonalEdgeStyle;rounded=0;orthogonalLoop=1;jettySize=auto;html=1;exitX=0.5;exitY=1;exitDx=0;exitDy=0;entryX=0.631;entryY=0.875;entryDx=0;entryDy=0;dashed=1;entryPerimeter=0;" parent="1" source="eGRWjD5pN5fuBiRvpTxn-95" target="eGRWjD5pN5fuBiRvpTxn-2" edge="1">
          <mxGeometry relative="1" as="geometry">
            <Array as="points">
              <mxPoint x="-592" y="680" />
              <mxPoint x="1781" y="680" />
            </Array>
          </mxGeometry>
        </mxCell>
        <mxCell id="eGRWjD5pN5fuBiRvpTxn-95" value="Fesz_T" style="rhombus;whiteSpace=wrap;html=1;" parent="1" vertex="1">
          <mxGeometry x="-632" y="256" width="80" height="60" as="geometry" />
        </mxCell>
        <mxCell id="eGRWjD5pN5fuBiRvpTxn-96" value="" style="endArrow=none;html=1;rounded=0;entryX=0.5;entryY=0;entryDx=0;entryDy=0;exitX=0.5;exitY=1;exitDx=0;exitDy=0;" parent="1" target="eGRWjD5pN5fuBiRvpTxn-97" edge="1" source="OQ8OwJereQaBiXP1IK4k-1">
          <mxGeometry width="50" height="50" relative="1" as="geometry">
            <mxPoint x="2337" y="420" as="sourcePoint" />
            <mxPoint x="2127" y="480" as="targetPoint" />
          </mxGeometry>
        </mxCell>
        <mxCell id="2494E5i11pp2VTstkDPC-6" style="edgeStyle=orthogonalEdgeStyle;rounded=0;orthogonalLoop=1;jettySize=auto;html=1;exitX=0.5;exitY=1;exitDx=0;exitDy=0;entryX=1;entryY=1;entryDx=0;entryDy=0;dashed=1;" parent="1" source="eGRWjD5pN5fuBiRvpTxn-97" target="eGRWjD5pN5fuBiRvpTxn-2" edge="1">
          <mxGeometry relative="1" as="geometry">
            <Array as="points">
              <mxPoint x="2180" y="490" />
              <mxPoint x="1790" y="490" />
            </Array>
          </mxGeometry>
        </mxCell>
        <mxCell id="eGRWjD5pN5fuBiRvpTxn-97" value="Fel_Fesz" style="rhombus;whiteSpace=wrap;html=1;" parent="1" vertex="1">
          <mxGeometry x="2140" y="256" width="80" height="60" as="geometry" />
        </mxCell>
        <mxCell id="eGRWjD5pN5fuBiRvpTxn-99" value="(lakcím)" style="ellipse;whiteSpace=wrap;html=1;" parent="1" vertex="1">
          <mxGeometry x="-222" y="256" width="80" height="60" as="geometry" />
        </mxCell>
        <mxCell id="eGRWjD5pN5fuBiRvpTxn-100" value="" style="endArrow=none;html=1;rounded=0;entryX=0.5;entryY=1;entryDx=0;entryDy=0;exitX=0.5;exitY=0;exitDx=0;exitDy=0;" parent="1" source="eGRWjD5pN5fuBiRvpTxn-99" target="OQ8OwJereQaBiXP1IK4k-7" edge="1">
          <mxGeometry width="50" height="50" relative="1" as="geometry">
            <mxPoint x="399" y="350" as="sourcePoint" />
            <mxPoint x="449" y="300" as="targetPoint" />
          </mxGeometry>
        </mxCell>
        <mxCell id="eGRWjD5pN5fuBiRvpTxn-101" value="település" style="ellipse;whiteSpace=wrap;html=1;" parent="1" vertex="1">
          <mxGeometry x="-136" y="451" width="80" height="60" as="geometry" />
        </mxCell>
        <mxCell id="eGRWjD5pN5fuBiRvpTxn-102" value="utca" style="ellipse;whiteSpace=wrap;html=1;" parent="1" vertex="1">
          <mxGeometry x="-223" y="451" width="80" height="60" as="geometry" />
        </mxCell>
        <mxCell id="eGRWjD5pN5fuBiRvpTxn-103" value="házszám" style="ellipse;whiteSpace=wrap;html=1;" parent="1" vertex="1">
          <mxGeometry x="-313" y="451" width="80" height="60" as="geometry" />
        </mxCell>
        <mxCell id="eGRWjD5pN5fuBiRvpTxn-104" value="" style="endArrow=none;html=1;rounded=0;entryX=1;entryY=1;entryDx=0;entryDy=0;exitX=0.381;exitY=0.017;exitDx=0;exitDy=0;exitPerimeter=0;" parent="1" source="eGRWjD5pN5fuBiRvpTxn-101" target="eGRWjD5pN5fuBiRvpTxn-99" edge="1">
          <mxGeometry width="50" height="50" relative="1" as="geometry">
            <mxPoint x="-114.36000000000013" y="445.4000000000001" as="sourcePoint" />
            <mxPoint x="138" y="480" as="targetPoint" />
          </mxGeometry>
        </mxCell>
        <mxCell id="eGRWjD5pN5fuBiRvpTxn-105" value="" style="endArrow=none;html=1;rounded=0;entryX=0.5;entryY=1;entryDx=0;entryDy=0;exitX=0.5;exitY=0;exitDx=0;exitDy=0;" parent="1" source="eGRWjD5pN5fuBiRvpTxn-102" target="eGRWjD5pN5fuBiRvpTxn-99" edge="1">
          <mxGeometry width="50" height="50" relative="1" as="geometry">
            <mxPoint x="88" y="530" as="sourcePoint" />
            <mxPoint x="138" y="480" as="targetPoint" />
          </mxGeometry>
        </mxCell>
        <mxCell id="eGRWjD5pN5fuBiRvpTxn-106" value="" style="endArrow=none;html=1;rounded=0;entryX=0;entryY=1;entryDx=0;entryDy=0;exitX=0.5;exitY=0;exitDx=0;exitDy=0;" parent="1" source="eGRWjD5pN5fuBiRvpTxn-103" target="eGRWjD5pN5fuBiRvpTxn-99" edge="1">
          <mxGeometry width="50" height="50" relative="1" as="geometry">
            <mxPoint x="88" y="530" as="sourcePoint" />
            <mxPoint x="138" y="480" as="targetPoint" />
          </mxGeometry>
        </mxCell>
        <mxCell id="eGRWjD5pN5fuBiRvpTxn-107" value="" style="endArrow=none;html=1;rounded=0;entryX=0.5;entryY=1;entryDx=0;entryDy=0;exitX=0.5;exitY=0;exitDx=0;exitDy=0;" parent="1" source="eGRWjD5pN5fuBiRvpTxn-108" target="eGRWjD5pN5fuBiRvpTxn-101" edge="1">
          <mxGeometry width="50" height="50" relative="1" as="geometry">
            <mxPoint x="-96" y="541" as="sourcePoint" />
            <mxPoint x="-96" y="511" as="targetPoint" />
          </mxGeometry>
        </mxCell>
        <mxCell id="eGRWjD5pN5fuBiRvpTxn-108" value="" style="rounded=0;whiteSpace=wrap;html=1;" parent="1" vertex="1">
          <mxGeometry x="-121" y="526" width="50" height="70" as="geometry" />
        </mxCell>
        <mxCell id="eGRWjD5pN5fuBiRvpTxn-109" value="" style="rounded=0;whiteSpace=wrap;html=1;" parent="1" vertex="1">
          <mxGeometry x="-208" y="526" width="50" height="70" as="geometry" />
        </mxCell>
        <mxCell id="eGRWjD5pN5fuBiRvpTxn-110" value="" style="rounded=0;whiteSpace=wrap;html=1;" parent="1" vertex="1">
          <mxGeometry x="-298" y="526" width="50" height="70" as="geometry" />
        </mxCell>
        <mxCell id="eGRWjD5pN5fuBiRvpTxn-111" value="" style="endArrow=none;html=1;rounded=0;entryX=0.5;entryY=1;entryDx=0;entryDy=0;exitX=0.5;exitY=0;exitDx=0;exitDy=0;" parent="1" source="eGRWjD5pN5fuBiRvpTxn-109" target="eGRWjD5pN5fuBiRvpTxn-102" edge="1">
          <mxGeometry width="50" height="50" relative="1" as="geometry">
            <mxPoint x="97" y="541" as="sourcePoint" />
            <mxPoint x="147" y="491" as="targetPoint" />
          </mxGeometry>
        </mxCell>
        <mxCell id="eGRWjD5pN5fuBiRvpTxn-112" value="" style="endArrow=none;html=1;rounded=0;entryX=0.5;entryY=1;entryDx=0;entryDy=0;exitX=0.5;exitY=0;exitDx=0;exitDy=0;" parent="1" source="eGRWjD5pN5fuBiRvpTxn-110" target="eGRWjD5pN5fuBiRvpTxn-103" edge="1">
          <mxGeometry width="50" height="50" relative="1" as="geometry">
            <mxPoint x="97" y="541" as="sourcePoint" />
            <mxPoint x="147" y="491" as="targetPoint" />
          </mxGeometry>
        </mxCell>
        <mxCell id="eGRWjD5pN5fuBiRvpTxn-115" value="" style="endArrow=none;html=1;rounded=0;exitX=0.5;exitY=0;exitDx=0;exitDy=0;entryX=0.5;entryY=1;entryDx=0;entryDy=0;" parent="1" source="eGRWjD5pN5fuBiRvpTxn-116" edge="1" target="OQ8OwJereQaBiXP1IK4k-3">
          <mxGeometry width="50" height="50" relative="1" as="geometry">
            <mxPoint x="1632" y="570" as="sourcePoint" />
            <mxPoint x="1549" y="420" as="targetPoint" />
          </mxGeometry>
        </mxCell>
        <mxCell id="2494E5i11pp2VTstkDPC-7" style="edgeStyle=orthogonalEdgeStyle;rounded=0;orthogonalLoop=1;jettySize=auto;html=1;exitX=0.5;exitY=1;exitDx=0;exitDy=0;entryX=0.381;entryY=0.925;entryDx=0;entryDy=0;entryPerimeter=0;dashed=1;" parent="1" source="eGRWjD5pN5fuBiRvpTxn-116" target="eGRWjD5pN5fuBiRvpTxn-2" edge="1">
          <mxGeometry relative="1" as="geometry">
            <mxPoint x="1757" y="520" as="sourcePoint" />
            <Array as="points">
              <mxPoint x="1660" y="360" />
              <mxPoint x="1761" y="360" />
            </Array>
          </mxGeometry>
        </mxCell>
        <mxCell id="eGRWjD5pN5fuBiRvpTxn-116" value="Fesz_B" style="rhombus;whiteSpace=wrap;html=1;" parent="1" vertex="1">
          <mxGeometry x="1620" y="256" width="80" height="60" as="geometry" />
        </mxCell>
        <mxCell id="eGRWjD5pN5fuBiRvpTxn-117" value="" style="endArrow=none;html=1;rounded=0;exitX=0.5;exitY=0;exitDx=0;exitDy=0;entryX=0.5;entryY=1;entryDx=0;entryDy=0;" parent="1" source="eGRWjD5pN5fuBiRvpTxn-118" edge="1" target="OQ8OwJereQaBiXP1IK4k-7">
          <mxGeometry width="50" height="50" relative="1" as="geometry">
            <mxPoint x="-231" y="470" as="sourcePoint" />
            <mxPoint x="-161" y="420" as="targetPoint" />
          </mxGeometry>
        </mxCell>
        <mxCell id="2494E5i11pp2VTstkDPC-5" style="edgeStyle=orthogonalEdgeStyle;rounded=0;orthogonalLoop=1;jettySize=auto;html=1;entryX=0.5;entryY=1;entryDx=0;entryDy=0;exitX=0.5;exitY=1;exitDx=0;exitDy=0;dashed=1;" parent="1" source="eGRWjD5pN5fuBiRvpTxn-118" target="eGRWjD5pN5fuBiRvpTxn-2" edge="1">
          <mxGeometry relative="1" as="geometry">
            <mxPoint x="1290" y="1000" as="targetPoint" />
            <Array as="points">
              <mxPoint x="-485" y="650" />
              <mxPoint x="1770" y="650" />
            </Array>
          </mxGeometry>
        </mxCell>
        <mxCell id="eGRWjD5pN5fuBiRvpTxn-118" value="Fesz_R" style="rhombus;whiteSpace=wrap;html=1;" parent="1" vertex="1">
          <mxGeometry x="-525" y="256" width="80" height="60" as="geometry" />
        </mxCell>
        <mxCell id="eGRWjD5pN5fuBiRvpTxn-119" value="Nyelvtudás" style="ellipse;whiteSpace=wrap;html=1;" parent="1" vertex="1">
          <mxGeometry x="469" y="120" width="120" height="80" as="geometry" />
        </mxCell>
        <mxCell id="eGRWjD5pN5fuBiRvpTxn-120" value="Alkalmazott" style="ellipse;whiteSpace=wrap;html=1;" parent="1" vertex="1">
          <mxGeometry x="891" y="121" width="120" height="80" as="geometry" />
        </mxCell>
        <mxCell id="eGRWjD5pN5fuBiRvpTxn-121" value="nyelv" style="ellipse;whiteSpace=wrap;html=1;" parent="1" vertex="1">
          <mxGeometry x="488" y="256" width="80" height="60" as="geometry" />
        </mxCell>
        <mxCell id="eGRWjD5pN5fuBiRvpTxn-122" value="" style="rounded=0;whiteSpace=wrap;html=1;" parent="1" vertex="1">
          <mxGeometry x="503" y="340" width="50" height="70" as="geometry" />
        </mxCell>
        <mxCell id="eGRWjD5pN5fuBiRvpTxn-123" value="" style="endArrow=none;html=1;rounded=0;entryX=0.5;entryY=1;entryDx=0;entryDy=0;exitX=0.5;exitY=0;exitDx=0;exitDy=0;" parent="1" source="eGRWjD5pN5fuBiRvpTxn-122" target="eGRWjD5pN5fuBiRvpTxn-121" edge="1">
          <mxGeometry width="50" height="50" relative="1" as="geometry">
            <mxPoint x="1211" y="378" as="sourcePoint" />
            <mxPoint x="1261" y="328" as="targetPoint" />
          </mxGeometry>
        </mxCell>
        <mxCell id="eGRWjD5pN5fuBiRvpTxn-124" value="szint" style="ellipse;whiteSpace=wrap;html=1;" parent="1" vertex="1">
          <mxGeometry x="591" y="256" width="80" height="60" as="geometry" />
        </mxCell>
        <mxCell id="eGRWjD5pN5fuBiRvpTxn-125" value="" style="rounded=0;whiteSpace=wrap;html=1;" parent="1" vertex="1">
          <mxGeometry x="606" y="340" width="50" height="70" as="geometry" />
        </mxCell>
        <mxCell id="eGRWjD5pN5fuBiRvpTxn-126" value="" style="endArrow=none;html=1;rounded=0;entryX=0.5;entryY=1;entryDx=0;entryDy=0;exitX=0.5;exitY=0;exitDx=0;exitDy=0;" parent="1" source="eGRWjD5pN5fuBiRvpTxn-125" target="eGRWjD5pN5fuBiRvpTxn-124" edge="1">
          <mxGeometry width="50" height="50" relative="1" as="geometry">
            <mxPoint x="1276" y="388" as="sourcePoint" />
            <mxPoint x="1326" y="338" as="targetPoint" />
          </mxGeometry>
        </mxCell>
        <mxCell id="eGRWjD5pN5fuBiRvpTxn-131" value="" style="endArrow=none;html=1;rounded=0;entryX=0.5;entryY=1;entryDx=0;entryDy=0;exitX=0.5;exitY=0;exitDx=0;exitDy=0;" parent="1" source="eGRWjD5pN5fuBiRvpTxn-124" target="OQ8OwJereQaBiXP1IK4k-5" edge="1">
          <mxGeometry width="50" height="50" relative="1" as="geometry">
            <mxPoint x="1168" y="208" as="sourcePoint" />
            <mxPoint x="1218" y="158" as="targetPoint" />
          </mxGeometry>
        </mxCell>
        <mxCell id="eGRWjD5pN5fuBiRvpTxn-132" value="" style="endArrow=none;html=1;rounded=0;entryX=0.5;entryY=1;entryDx=0;entryDy=0;exitX=0.5;exitY=0;exitDx=0;exitDy=0;" parent="1" source="eGRWjD5pN5fuBiRvpTxn-121" target="OQ8OwJereQaBiXP1IK4k-5" edge="1">
          <mxGeometry width="50" height="50" relative="1" as="geometry">
            <mxPoint x="1168" y="208" as="sourcePoint" />
            <mxPoint x="1218" y="158" as="targetPoint" />
          </mxGeometry>
        </mxCell>
        <mxCell id="eGRWjD5pN5fuBiRvpTxn-133" value="&lt;u&gt;Ny_id&lt;/u&gt;" style="rhombus;whiteSpace=wrap;html=1;" parent="1" vertex="1">
          <mxGeometry x="390" y="256" width="80" height="60" as="geometry" />
        </mxCell>
        <mxCell id="eGRWjD5pN5fuBiRvpTxn-134" value="" style="endArrow=none;html=1;rounded=0;exitX=0.5;exitY=0;exitDx=0;exitDy=0;entryX=0.5;entryY=1;entryDx=0;entryDy=0;" parent="1" source="eGRWjD5pN5fuBiRvpTxn-133" target="OQ8OwJereQaBiXP1IK4k-5" edge="1">
          <mxGeometry width="50" height="50" relative="1" as="geometry">
            <mxPoint x="978" y="208" as="sourcePoint" />
            <mxPoint x="580" y="260" as="targetPoint" />
          </mxGeometry>
        </mxCell>
        <mxCell id="eGRWjD5pN5fuBiRvpTxn-136" value="név" style="ellipse;whiteSpace=wrap;html=1;" parent="1" vertex="1">
          <mxGeometry x="811" y="256" width="80" height="60" as="geometry" />
        </mxCell>
        <mxCell id="eGRWjD5pN5fuBiRvpTxn-137" value="" style="rounded=0;whiteSpace=wrap;html=1;" parent="1" vertex="1">
          <mxGeometry x="827" y="340" width="50" height="70" as="geometry" />
        </mxCell>
        <mxCell id="eGRWjD5pN5fuBiRvpTxn-138" value="" style="endArrow=none;html=1;rounded=0;entryX=0.5;entryY=1;entryDx=0;entryDy=0;exitX=0.5;exitY=0;exitDx=0;exitDy=0;" parent="1" source="eGRWjD5pN5fuBiRvpTxn-137" target="eGRWjD5pN5fuBiRvpTxn-136" edge="1">
          <mxGeometry width="50" height="50" relative="1" as="geometry">
            <mxPoint x="1458" y="386" as="sourcePoint" />
            <mxPoint x="1508" y="336" as="targetPoint" />
          </mxGeometry>
        </mxCell>
        <mxCell id="eGRWjD5pN5fuBiRvpTxn-140" value="" style="rounded=0;whiteSpace=wrap;html=1;" parent="1" vertex="1">
          <mxGeometry x="927" y="340" width="50" height="70" as="geometry" />
        </mxCell>
        <mxCell id="eGRWjD5pN5fuBiRvpTxn-141" value="" style="endArrow=none;html=1;rounded=0;entryX=0.5;entryY=1;entryDx=0;entryDy=0;exitX=0.5;exitY=0;exitDx=0;exitDy=0;" parent="1" source="eGRWjD5pN5fuBiRvpTxn-140" target="ZJUqIeF_-J3eagiU4TCH-18" edge="1">
          <mxGeometry width="50" height="50" relative="1" as="geometry">
            <mxPoint x="1559" y="386" as="sourcePoint" />
            <mxPoint x="944.25" y="316" as="targetPoint" />
          </mxGeometry>
        </mxCell>
        <mxCell id="eGRWjD5pN5fuBiRvpTxn-142" value="fizetés" style="ellipse;whiteSpace=wrap;html=1;" parent="1" vertex="1">
          <mxGeometry x="1010" y="256" width="80" height="60" as="geometry" />
        </mxCell>
        <mxCell id="eGRWjD5pN5fuBiRvpTxn-143" value="" style="rounded=0;whiteSpace=wrap;html=1;" parent="1" vertex="1">
          <mxGeometry x="1025" y="340" width="50" height="70" as="geometry" />
        </mxCell>
        <mxCell id="eGRWjD5pN5fuBiRvpTxn-144" value="" style="endArrow=none;html=1;rounded=0;entryX=0.5;entryY=1;entryDx=0;entryDy=0;exitX=0.5;exitY=0;exitDx=0;exitDy=0;" parent="1" source="eGRWjD5pN5fuBiRvpTxn-143" target="eGRWjD5pN5fuBiRvpTxn-142" edge="1">
          <mxGeometry width="50" height="50" relative="1" as="geometry">
            <mxPoint x="1657" y="386" as="sourcePoint" />
            <mxPoint x="1707" y="336" as="targetPoint" />
          </mxGeometry>
        </mxCell>
        <mxCell id="eGRWjD5pN5fuBiRvpTxn-145" value="" style="endArrow=none;html=1;rounded=0;entryX=0.5;entryY=1;entryDx=0;entryDy=0;exitX=0.5;exitY=0;exitDx=0;exitDy=0;" parent="1" source="eGRWjD5pN5fuBiRvpTxn-142" target="eGRWjD5pN5fuBiRvpTxn-120" edge="1">
          <mxGeometry width="50" height="50" relative="1" as="geometry">
            <mxPoint x="1180" y="135" as="sourcePoint" />
            <mxPoint x="1230" y="85" as="targetPoint" />
          </mxGeometry>
        </mxCell>
        <mxCell id="eGRWjD5pN5fuBiRvpTxn-146" value="" style="endArrow=none;html=1;rounded=0;entryX=0.5;entryY=1;entryDx=0;entryDy=0;exitX=0.5;exitY=0;exitDx=0;exitDy=0;" parent="1" source="ZJUqIeF_-J3eagiU4TCH-18" target="eGRWjD5pN5fuBiRvpTxn-120" edge="1">
          <mxGeometry width="50" height="50" relative="1" as="geometry">
            <mxPoint x="952.25" y="260" as="sourcePoint" />
            <mxPoint x="1230" y="85" as="targetPoint" />
          </mxGeometry>
        </mxCell>
        <mxCell id="eGRWjD5pN5fuBiRvpTxn-147" value="" style="endArrow=none;html=1;rounded=0;entryX=0.5;entryY=1;entryDx=0;entryDy=0;exitX=0.5;exitY=0;exitDx=0;exitDy=0;" parent="1" source="eGRWjD5pN5fuBiRvpTxn-136" target="OQ8OwJereQaBiXP1IK4k-4" edge="1">
          <mxGeometry width="50" height="50" relative="1" as="geometry">
            <mxPoint x="1180" y="135" as="sourcePoint" />
            <mxPoint x="1230" y="85" as="targetPoint" />
          </mxGeometry>
        </mxCell>
        <mxCell id="eGRWjD5pN5fuBiRvpTxn-148" value="&lt;u&gt;A_id&lt;/u&gt;" style="rhombus;whiteSpace=wrap;html=1;" parent="1" vertex="1">
          <mxGeometry x="709" y="256" width="80" height="60" as="geometry" />
        </mxCell>
        <mxCell id="eGRWjD5pN5fuBiRvpTxn-149" value="" style="endArrow=none;html=1;rounded=0;exitX=0.5;exitY=0;exitDx=0;exitDy=0;entryX=0.5;entryY=1;entryDx=0;entryDy=0;" parent="1" source="eGRWjD5pN5fuBiRvpTxn-148" edge="1" target="OQ8OwJereQaBiXP1IK4k-4">
          <mxGeometry width="50" height="50" relative="1" as="geometry">
            <mxPoint x="1100" y="265" as="sourcePoint" />
            <mxPoint x="889" y="420" as="targetPoint" />
          </mxGeometry>
        </mxCell>
        <mxCell id="2494E5i11pp2VTstkDPC-8" value="" style="endArrow=none;html=1;rounded=0;entryX=0.5;entryY=1;entryDx=0;entryDy=0;exitX=0.5;exitY=0;exitDx=0;exitDy=0;" parent="1" source="2494E5i11pp2VTstkDPC-10" target="OQ8OwJereQaBiXP1IK4k-4" edge="1">
          <mxGeometry width="50" height="50" relative="1" as="geometry">
            <mxPoint x="750" y="275" as="sourcePoint" />
            <mxPoint x="950" y="25" as="targetPoint" />
          </mxGeometry>
        </mxCell>
        <mxCell id="2494E5i11pp2VTstkDPC-11" style="edgeStyle=orthogonalEdgeStyle;rounded=0;orthogonalLoop=1;jettySize=auto;html=1;entryX=0.5;entryY=1;entryDx=0;entryDy=0;exitX=0.5;exitY=1;exitDx=0;exitDy=0;dashed=1;" parent="1" source="2494E5i11pp2VTstkDPC-10" target="eGRWjD5pN5fuBiRvpTxn-54" edge="1">
          <mxGeometry relative="1" as="geometry">
            <mxPoint x="1279" y="650" as="targetPoint" />
            <Array as="points">
              <mxPoint x="1150" y="360" />
              <mxPoint x="1260" y="360" />
            </Array>
          </mxGeometry>
        </mxCell>
        <mxCell id="2494E5i11pp2VTstkDPC-10" value="B_A" style="rhombus;whiteSpace=wrap;html=1;" parent="1" vertex="1">
          <mxGeometry x="1110" y="256" width="80" height="60" as="geometry" />
        </mxCell>
        <mxCell id="ZJUqIeF_-J3eagiU4TCH-1" value="Közvélemény" style="ellipse;whiteSpace=wrap;html=1;" parent="1" vertex="1">
          <mxGeometry x="114" y="118" width="120" height="80" as="geometry" />
        </mxCell>
        <mxCell id="ZJUqIeF_-J3eagiU4TCH-2" value="&lt;u&gt;K_id&lt;/u&gt;" style="rhombus;whiteSpace=wrap;html=1;" parent="1" vertex="1">
          <mxGeometry x="-15" y="256" width="80" height="60" as="geometry" />
        </mxCell>
        <mxCell id="ZJUqIeF_-J3eagiU4TCH-3" value="kérdező" style="ellipse;whiteSpace=wrap;html=1;" parent="1" vertex="1">
          <mxGeometry x="185" y="256" width="80" height="60" as="geometry" />
        </mxCell>
        <mxCell id="ZJUqIeF_-J3eagiU4TCH-4" value="" style="rounded=0;whiteSpace=wrap;html=1;" parent="1" vertex="1">
          <mxGeometry x="200" y="340" width="50" height="70" as="geometry" />
        </mxCell>
        <mxCell id="ZJUqIeF_-J3eagiU4TCH-5" value="" style="endArrow=none;html=1;rounded=0;entryX=0.5;entryY=1;entryDx=0;entryDy=0;exitX=0.5;exitY=0;exitDx=0;exitDy=0;" parent="1" source="ZJUqIeF_-J3eagiU4TCH-4" target="ZJUqIeF_-J3eagiU4TCH-3" edge="1">
          <mxGeometry width="50" height="50" relative="1" as="geometry">
            <mxPoint x="84" y="394" as="sourcePoint" />
            <mxPoint x="134" y="344" as="targetPoint" />
          </mxGeometry>
        </mxCell>
        <mxCell id="ZJUqIeF_-J3eagiU4TCH-6" value="" style="endArrow=none;html=1;rounded=0;entryX=0.5;entryY=1;entryDx=0;entryDy=0;exitX=0.5;exitY=0;exitDx=0;exitDy=0;" parent="1" source="ZJUqIeF_-J3eagiU4TCH-3" target="OQ8OwJereQaBiXP1IK4k-6" edge="1">
          <mxGeometry width="50" height="50" relative="1" as="geometry">
            <mxPoint x="175" y="410" as="sourcePoint" />
            <mxPoint x="225" y="360" as="targetPoint" />
          </mxGeometry>
        </mxCell>
        <mxCell id="ZJUqIeF_-J3eagiU4TCH-7" value="" style="endArrow=none;html=1;rounded=0;entryX=0.5;entryY=1;entryDx=0;entryDy=0;exitX=0.5;exitY=0;exitDx=0;exitDy=0;" parent="1" source="ZJUqIeF_-J3eagiU4TCH-2" target="ZJUqIeF_-J3eagiU4TCH-1" edge="1">
          <mxGeometry width="50" height="50" relative="1" as="geometry">
            <mxPoint x="175" y="410" as="sourcePoint" />
            <mxPoint x="225" y="360" as="targetPoint" />
          </mxGeometry>
        </mxCell>
        <mxCell id="ZJUqIeF_-J3eagiU4TCH-13" style="edgeStyle=orthogonalEdgeStyle;rounded=0;orthogonalLoop=1;jettySize=auto;html=1;exitX=0.5;exitY=1;exitDx=0;exitDy=0;entryX=0.5;entryY=1;entryDx=0;entryDy=0;dashed=1;" parent="1" source="ZJUqIeF_-J3eagiU4TCH-9" target="eGRWjD5pN5fuBiRvpTxn-133" edge="1">
          <mxGeometry relative="1" as="geometry">
            <Array as="points">
              <mxPoint x="325" y="370" />
              <mxPoint x="430" y="370" />
            </Array>
          </mxGeometry>
        </mxCell>
        <mxCell id="ZJUqIeF_-J3eagiU4TCH-9" value="K_Ny" style="rhombus;whiteSpace=wrap;html=1;" parent="1" vertex="1">
          <mxGeometry x="285" y="256" width="80" height="60" as="geometry" />
        </mxCell>
        <mxCell id="ZJUqIeF_-J3eagiU4TCH-14" style="edgeStyle=orthogonalEdgeStyle;rounded=0;orthogonalLoop=1;jettySize=auto;html=1;exitX=0.5;exitY=1;exitDx=0;exitDy=0;entryX=0.5;entryY=1;entryDx=0;entryDy=0;dashed=1;" parent="1" source="ZJUqIeF_-J3eagiU4TCH-10" target="eGRWjD5pN5fuBiRvpTxn-72" edge="1">
          <mxGeometry relative="1" as="geometry">
            <mxPoint x="220" y="630" as="sourcePoint" />
            <Array as="points">
              <mxPoint x="125" y="370" />
              <mxPoint x="-81" y="370" />
            </Array>
          </mxGeometry>
        </mxCell>
        <mxCell id="ZJUqIeF_-J3eagiU4TCH-10" value="K_R" style="rhombus;whiteSpace=wrap;html=1;" parent="1" vertex="1">
          <mxGeometry x="85" y="256" width="80" height="60" as="geometry" />
        </mxCell>
        <mxCell id="ZJUqIeF_-J3eagiU4TCH-11" value="" style="endArrow=none;html=1;rounded=0;exitX=0.5;exitY=0;exitDx=0;exitDy=0;entryX=0.5;entryY=1;entryDx=0;entryDy=0;" parent="1" source="ZJUqIeF_-J3eagiU4TCH-10" edge="1" target="OQ8OwJereQaBiXP1IK4k-6">
          <mxGeometry width="50" height="50" relative="1" as="geometry">
            <mxPoint x="175" y="410" as="sourcePoint" />
            <mxPoint x="375" y="560" as="targetPoint" />
          </mxGeometry>
        </mxCell>
        <mxCell id="ZJUqIeF_-J3eagiU4TCH-12" value="" style="endArrow=none;html=1;rounded=0;exitX=0.5;exitY=0;exitDx=0;exitDy=0;entryX=0.5;entryY=1;entryDx=0;entryDy=0;" parent="1" source="ZJUqIeF_-J3eagiU4TCH-9" edge="1" target="OQ8OwJereQaBiXP1IK4k-6">
          <mxGeometry width="50" height="50" relative="1" as="geometry">
            <mxPoint x="335" y="610" as="sourcePoint" />
            <mxPoint x="375" y="560" as="targetPoint" />
          </mxGeometry>
        </mxCell>
        <mxCell id="ZJUqIeF_-J3eagiU4TCH-15" value="" style="endArrow=none;html=1;rounded=0;exitX=0.5;exitY=0;exitDx=0;exitDy=0;entryX=0.5;entryY=1;entryDx=0;entryDy=0;" parent="1" source="ZJUqIeF_-J3eagiU4TCH-1" target="gpzR5CBWOuM9B5lPcLhK-56" edge="1">
          <mxGeometry width="50" height="50" relative="1" as="geometry">
            <mxPoint x="510" y="490" as="sourcePoint" />
            <mxPoint x="770" y="100" as="targetPoint" />
          </mxGeometry>
        </mxCell>
        <mxCell id="ZJUqIeF_-J3eagiU4TCH-16" value="" style="endArrow=none;html=1;rounded=0;entryX=0.5;entryY=1;entryDx=0;entryDy=0;exitX=0.5;exitY=0;exitDx=0;exitDy=0;" parent="1" source="eGRWjD5pN5fuBiRvpTxn-119" target="gpzR5CBWOuM9B5lPcLhK-56" edge="1">
          <mxGeometry width="50" height="50" relative="1" as="geometry">
            <mxPoint x="670" y="490" as="sourcePoint" />
            <mxPoint x="720" y="440" as="targetPoint" />
          </mxGeometry>
        </mxCell>
        <mxCell id="ZJUqIeF_-J3eagiU4TCH-18" value="müszak" style="ellipse;whiteSpace=wrap;html=1;perimeterSpacing=0;" parent="1" vertex="1">
          <mxGeometry x="911" y="256" width="80" height="60" as="geometry" />
        </mxCell>
        <mxCell id="ZJUqIeF_-J3eagiU4TCH-19" value="müszak" style="ellipse;whiteSpace=wrap;html=1;perimeterSpacing=0;" parent="1" vertex="1">
          <mxGeometry x="916.5" y="261" width="71" height="50" as="geometry" />
        </mxCell>
        <mxCell id="ZJUqIeF_-J3eagiU4TCH-20" value="ital" style="ellipse;whiteSpace=wrap;html=1;" parent="1" vertex="1">
          <mxGeometry x="1325" y="263" width="66" height="46" as="geometry" />
        </mxCell>
        <mxCell id="OQ8OwJereQaBiXP1IK4k-1" value="Fellépő" style="ellipse;whiteSpace=wrap;html=1;" parent="1" vertex="1">
          <mxGeometry x="2323" y="123.5" width="110" height="75" as="geometry" />
        </mxCell>
        <mxCell id="OQ8OwJereQaBiXP1IK4k-2" value="Fesztivál" style="ellipse;whiteSpace=wrap;html=1;" parent="1" vertex="1">
          <mxGeometry x="1864.25" y="122.5" width="109.5" height="75" as="geometry" />
        </mxCell>
        <mxCell id="OQ8OwJereQaBiXP1IK4k-3" value="Bár" style="ellipse;whiteSpace=wrap;html=1;" parent="1" vertex="1">
          <mxGeometry x="1403.5" y="123.5" width="113" height="75" as="geometry" />
        </mxCell>
        <mxCell id="OQ8OwJereQaBiXP1IK4k-4" value="Alkalmazott" style="ellipse;whiteSpace=wrap;html=1;" parent="1" vertex="1">
          <mxGeometry x="895.5" y="123.5" width="111" height="75" as="geometry" />
        </mxCell>
        <mxCell id="OQ8OwJereQaBiXP1IK4k-5" value="Nyelvtudás" style="ellipse;whiteSpace=wrap;html=1;" parent="1" vertex="1">
          <mxGeometry x="474" y="122.5" width="110" height="75" as="geometry" />
        </mxCell>
        <mxCell id="OQ8OwJereQaBiXP1IK4k-6" value="Közvélemény" style="ellipse;whiteSpace=wrap;html=1;" parent="1" vertex="1">
          <mxGeometry x="119" y="120.5" width="110" height="75" as="geometry" />
        </mxCell>
        <mxCell id="OQ8OwJereQaBiXP1IK4k-7" value="Résztvevő" style="ellipse;whiteSpace=wrap;html=1;" parent="1" vertex="1">
          <mxGeometry x="-340.5" y="120.5" width="113" height="75" as="geometry" />
        </mxCell>
        <mxCell id="OQ8OwJereQaBiXP1IK4k-8" value="Tulajdonos" style="ellipse;whiteSpace=wrap;html=1;" parent="1" vertex="1">
          <mxGeometry x="-898.5" y="122.5" width="113" height="75" as="geometry" />
        </mxCell>
        <mxCell id="Rj9rCZg3Khfc-VIIC3tr-1" value="" style="endArrow=none;dashed=1;html=1;dashPattern=1 3;strokeWidth=2;rounded=0;entryX=1;entryY=1;entryDx=0;entryDy=0;exitX=0;exitY=1;exitDx=0;exitDy=0;" edge="1" parent="1" source="eGRWjD5pN5fuBiRvpTxn-97" target="eGRWjD5pN5fuBiRvpTxn-97">
          <mxGeometry width="50" height="50" relative="1" as="geometry">
            <mxPoint x="1970" y="380" as="sourcePoint" />
            <mxPoint x="2020" y="330" as="targetPoint" />
          </mxGeometry>
        </mxCell>
        <mxCell id="Rj9rCZg3Khfc-VIIC3tr-2" value="" style="endArrow=none;dashed=1;html=1;dashPattern=1 3;strokeWidth=2;rounded=0;entryX=1;entryY=1;entryDx=0;entryDy=0;exitX=0;exitY=1;exitDx=0;exitDy=0;" edge="1" parent="1" source="eGRWjD5pN5fuBiRvpTxn-116" target="eGRWjD5pN5fuBiRvpTxn-116">
          <mxGeometry width="50" height="50" relative="1" as="geometry">
            <mxPoint x="1450" y="380" as="sourcePoint" />
            <mxPoint x="1500" y="330" as="targetPoint" />
          </mxGeometry>
        </mxCell>
        <mxCell id="Rj9rCZg3Khfc-VIIC3tr-3" value="" style="endArrow=none;dashed=1;html=1;dashPattern=1 3;strokeWidth=2;rounded=0;entryX=1;entryY=1;entryDx=0;entryDy=0;exitX=0;exitY=1;exitDx=0;exitDy=0;" edge="1" parent="1" source="2494E5i11pp2VTstkDPC-10" target="2494E5i11pp2VTstkDPC-10">
          <mxGeometry width="50" height="50" relative="1" as="geometry">
            <mxPoint x="1010" y="380" as="sourcePoint" />
            <mxPoint x="1060" y="330" as="targetPoint" />
          </mxGeometry>
        </mxCell>
        <mxCell id="Rj9rCZg3Khfc-VIIC3tr-4" value="" style="endArrow=none;dashed=1;html=1;dashPattern=1 3;strokeWidth=2;rounded=0;entryX=1;entryY=1;entryDx=0;entryDy=0;exitX=0;exitY=1;exitDx=0;exitDy=0;" edge="1" parent="1" source="ZJUqIeF_-J3eagiU4TCH-9" target="ZJUqIeF_-J3eagiU4TCH-9">
          <mxGeometry width="50" height="50" relative="1" as="geometry">
            <mxPoint x="290" y="380" as="sourcePoint" />
            <mxPoint x="340" y="330" as="targetPoint" />
          </mxGeometry>
        </mxCell>
        <mxCell id="Rj9rCZg3Khfc-VIIC3tr-5" value="" style="endArrow=none;dashed=1;html=1;dashPattern=1 3;strokeWidth=2;rounded=0;entryX=1;entryY=1;entryDx=0;entryDy=0;exitX=0;exitY=1;exitDx=0;exitDy=0;" edge="1" parent="1" source="ZJUqIeF_-J3eagiU4TCH-10" target="ZJUqIeF_-J3eagiU4TCH-10">
          <mxGeometry width="50" height="50" relative="1" as="geometry">
            <mxPoint x="290" y="380" as="sourcePoint" />
            <mxPoint x="340" y="330" as="targetPoint" />
          </mxGeometry>
        </mxCell>
        <mxCell id="Rj9rCZg3Khfc-VIIC3tr-6" value="" style="endArrow=none;dashed=1;html=1;dashPattern=1 3;strokeWidth=2;rounded=0;entryX=1;entryY=1;entryDx=0;entryDy=0;exitX=0;exitY=1;exitDx=0;exitDy=0;" edge="1" parent="1" source="eGRWjD5pN5fuBiRvpTxn-118" target="eGRWjD5pN5fuBiRvpTxn-118">
          <mxGeometry width="50" height="50" relative="1" as="geometry">
            <mxPoint x="-470" y="380" as="sourcePoint" />
            <mxPoint x="-420" y="330" as="targetPoint" />
          </mxGeometry>
        </mxCell>
        <mxCell id="Rj9rCZg3Khfc-VIIC3tr-7" value="" style="endArrow=none;dashed=1;html=1;dashPattern=1 3;strokeWidth=2;rounded=0;entryX=1;entryY=1;entryDx=0;entryDy=0;exitX=0;exitY=1;exitDx=0;exitDy=0;" edge="1" parent="1" source="eGRWjD5pN5fuBiRvpTxn-95" target="eGRWjD5pN5fuBiRvpTxn-95">
          <mxGeometry width="50" height="50" relative="1" as="geometry">
            <mxPoint x="-470" y="380" as="sourcePoint" />
            <mxPoint x="-420" y="330" as="targetPoint" />
          </mxGeometry>
        </mxCell>
      </root>
    </mxGraphModel>
  </diagram>
</mxfile>
